Stash.House.2012.DVDRip.XviD-EXViD

EXViD aims to iNTERNAL those releases which have been lost in the archives
EXViD aims to PRE non-internal releases which have poor sources and are likely skipped by others
 
http://www.imdb.com/title/tt1919090/
Subtitles: DA, NL, NO, FI, SV
Date: 2012.09
Director: Eduardo Rodriguez

Genres: Thriller

Plot:
A couple love their new house, bought for a steal out of a foreclosure. During their first visit they find illegal drugs stashed in the walls, and they realize this is not their dream house. 

Cast:
Dolph Lundgren ... Andy Spector
Briana Evigan ... Emma Nash
Sean Faris ... David Nash
Jon Huertas ... Ray Jaffe
Alyshia Ochse ... Trish Garrety
Don Yesso ... Benz
David Cole Bottoms ... Uniformed Police Officer (as David Bottoms)
Sean Boyd ... Fed #2
Javier Carrasquillo ... Officer Rushing
Caleb Michaelson ... Paramedic
Lance E. Nichols ... Priest

Stats:
Format: AVI
Format/Info: Audio Video Interleave
File size: 701 MiB
Duration: 1h 35mn
Overall bit rate: 1 025 Kbps
Writing application: VirtualDubMod 1.5.10.2 (build 2540/release)
Writing library: VirtualDubMod build 2540/release

Video
ID: 0
Format: MPEG-4 Visual
Format profile: Advanced Simple@L5
Format settings, BVOP: Yes
Format settings, QPel: No
Format settings, GMC: No warppoints
Format settings, Matrix: Default (H.263)
Muxing mode: Packed bitstream
Codec ID: XVID
Codec ID/Hint: XviD
Duration: 1h 35mn
Bit rate: 891 Kbps
Width: 624 pixels
Height: 352 pixels
Display aspect ratio: 16:9
Frame rate: 25.000 fps
Color space: YUV
Chroma subsampling: 4:2:0
Bit depth: 8 bits
Scan type: Progressive
Bits/(Pixel*Frame): 0.162
Stream size: 609 MiB (87%)
Writing library: XviD 64

Audio
ID: 1
Format: MPEG Audio
Format version: Version 1
Format profile: Layer 3
Mode: Joint stereo
Mode extension: MS Stereo
Codec ID: 55
Codec ID/Hint: MP3
Duration: 1h 35mn
Bit rate mode: Variable
Bit rate: 121 Kbps
Nominal bit rate: 128 Kbps
Channel(s): 2 channels
Sampling rate: 48.0 KHz
Stream size: 82.9 MiB (12%)
Alignment: Aligned on interleaves
Interleave, duration: 24 ms (0.60 video frame)
Interleave, preload duration: 387 ms
Writing library: LAME3.98r
Encoding settings: -m j -V 4 -q 2 -lowpass 17 --abr 128

Release notes:
enjoy!

Looking for:
75TB+ Archives
DUTCH/FLEMiSH Archives

Greets: CRBS EPiSODE FiCO FLS iLS KLASSiGER LiPSYNC MADE NODLABS RUNNER SPRiNTER

ASCII DONE BY XX^NFO 2oo9


Poster:

 
http://i.imgur.com/49OgC.jpg


Screenshots:

 
http://i.imgur.com/uIkNr.jpg


ENJOY!